<svg xmlns="http://www.w3.org/2000/svg" viewBox="0 0 512 512">
  <defs>
    <linearGradient id="bg" x1="0%" y1="0%" x2="100%" y2="100%">
      <stop offset="0%" style="stop-color:#0d9488;stop-opacity:1" />
      <stop offset="100%" style="stop-color:#0891b2;stop-opacity:1" />
    </linearGradient>
    <filter id="shadow" x="-20%" y="-20%" width="140%" height="140%">
      <feDropShadow dx="0" dy="4" stdDeviation="4" flood-opacity="0.25"/>
    </filter>
  </defs>

  <!-- Background -->
  <rect width="512" height="512" rx="128" fill="url(#bg)" />

  <!-- Icon: Abstract "Flow" shape -->
  <path d="M150 256.4c0-58.5 47.4-105.9 105.9-105.9 33.3 0 63.1 15.6 82.5 40.1l-35.4 35.4c-11.8-15-30-24.6-50.5-24.6-35.3 0-63.9 28.6-63.9 63.9s28.6 63.9 63.9 63.9c20.5 0 38.7-9.6 50.5-24.6l35.4 35.4c-19.4 24.5-49.2 40.1-82.5 40.1-58.5 0-105.9-47.4-105.9-105.9zM362 256.4c0 58.5-47.4 105.9-105.9 105.9-9.6 0-18.9-1.3-27.8-3.7l-32.6 32.6C211 403.4 232.8 412.3 256 412.3c86.1 0 155.9-69.8 155.9-155.9 0-23.2-8.9-45-23.7-62.3l-32.6 32.6c2.4 8.9 3.7 18.2 3.7 27.8z" fill="white" fill-opacity="0.2" />

  <path d="M176 336c-8.8 0-16-7.2-16-16v-64c0-35.3 28.7-64 64-64h96c8.8 0 16 7.2 16 16s-7.2 16-16 16h-96c-17.7 0-32 14.3-32 32v64c0 8.8-7.2 16-16 16z" fill="white" filter="url(#shadow)"/>
  <path d="M336 176c8.8 0 16 7.2 16 16v64c0 35.3-28.7 64-64 64h-96c-8.8 0-16-7.2-16-16s7.2-16 16-16h96c17.7 0 32-14.3 32-32v-64c0-8.8 7.2-16 16-16z" fill="white" filter="url(#shadow)"/>

  <!-- Central Dot or Accent -->
  <circle cx="256" cy="256" r="24" fill="white" filter="url(#shadow)" />

</svg>
